<svg width="500" height="109" viewBox="0 0 500 109" fill="none" xmlns="http://www.w3.org/2000/svg">
<path d="M199.136 37.304V71H190.928V50.792L183.392 71H176.768L169.184 50.744V71H160.976V37.304H170.672L180.128 60.632L189.488 37.304H199.136ZM217.231 71.384C214.607 71.384 212.239 70.824 210.127 69.704C208.047 68.584 206.399 66.984 205.183 64.904C203.999 62.824 203.407 60.392 203.407 57.608C203.407 54.856 204.015 52.44 205.23 50.36C206.447 48.248 208.111 46.632 210.223 45.512C212.335 44.392 214.703 43.832 217.327 43.832C219.951 43.832 222.319 44.392 224.431 45.512C226.543 46.632 228.207 48.248 229.423 50.36C230.639 52.44 231.247 54.856 231.247 57.608C231.247 60.36 230.623 62.792 229.375 64.904C228.159 66.984 226.479 68.584 224.335 69.704C222.223 70.824 219.855 71.384 217.231 71.384ZM217.231 64.28C218.799 64.28 220.127 63.704 221.215 62.552C222.335 61.4 222.895 59.752 222.895 57.608C222.895 55.464 222.351 53.816 221.263 52.664C220.207 51.512 218.895 50.936 217.327 50.936C215.727 50.936 214.399 51.512 213.343 52.664C212.287 53.784 211.759 55.432 211.759 57.608C211.759 59.752 212.271 61.4 213.295 62.552C214.351 63.704 215.663 64.28 217.231 64.28ZM247.649 63.32L253.457 44.216H262.193L252.689 71H242.561L233.057 44.216H241.841L247.649 63.32ZM269.776 41.432C268.336 41.432 267.152 41.016 266.224 40.184C265.328 39.32 264.88 38.264 264.88 37.016C264.88 35.736 265.328 34.68 266.224 33.848C267.152 32.984 268.336 32.552 269.776 32.552C271.184 32.552 272.336 32.984 273.232 33.848C274.16 34.68 274.624 35.736 274.624 37.016C274.624 38.264 274.16 39.32 273.232 40.184C272.336 41.016 271.184 41.432 269.776 41.432ZM273.856 44.216V71H265.648V44.216H273.856ZM305.052 57.176C305.052 57.944 305.004 58.744 304.908 59.576H286.332C286.46 61.24 286.988 62.52 287.916 63.416C288.876 64.28 290.044 64.712 291.42 64.712C293.468 64.712 294.892 63.848 295.692 62.12H304.428C303.98 63.88 303.164 65.464 301.98 66.872C300.828 68.28 299.372 69.384 297.612 70.184C295.852 70.984 293.884 71.384 291.708 71.384C289.084 71.384 286.748 70.824 284.7 69.704C282.652 68.584 281.052 66.984 279.9 64.904C278.748 62.824 278.172 60.392 278.172 57.608C278.172 54.824 278.732 52.392 279.852 50.312C281.004 48.232 282.604 46.632 284.652 45.512C286.7 44.392 289.052 43.832 291.708 43.832C294.3 43.832 296.604 44.376 298.62 45.464C300.636 46.552 302.204 48.104 303.324 50.12C304.476 52.136 305.052 54.488 305.052 57.176ZM296.652 55.016C296.652 53.608 296.172 52.488 295.212 51.656C294.252 50.824 293.052 50.408 291.612 50.408C290.236 50.408 289.068 50.808 288.108 51.608C287.18 52.408 286.604 53.544 286.38 55.016H296.652ZM338.566 37.304V71H330.358V57.128H317.59V71H309.382V37.304H317.59V50.504H330.358V37.304H338.566ZM370.94 44.216V71H362.732V67.352C361.9 68.536 360.764 69.496 359.324 70.232C357.916 70.936 356.348 71.288 354.62 71.288C352.572 71.288 350.764 70.84 349.196 69.944C347.628 69.016 346.412 67.688 345.548 65.96C344.684 64.232 344.252 62.2 344.252 59.864V44.216H352.412V58.76C352.412 60.552 352.876 61.944 353.804 62.936C354.732 63.928 355.98 64.424 357.548 64.424C359.148 64.424 360.412 63.928 361.34 62.936C362.268 61.944 362.732 60.552 362.732 58.76V44.216H370.94ZM393.155 43.928C396.291 43.928 398.787 44.952 400.643 47C402.531 49.016 403.475 51.8 403.475 55.352V71H395.315V56.456C395.315 54.664 394.851 53.272 393.923 52.28C392.995 51.288 391.747 50.792 390.179 50.792C388.611 50.792 387.363 51.288 386.435 52.28C385.507 53.272 385.043 54.664 385.043 56.456V71H376.835V44.216H385.043V47.768C385.875 46.584 386.995 45.656 388.403 44.984C389.811 44.28 391.395 43.928 393.155 43.928ZM424.107 64.04V71H419.931C416.955 71 414.635 70.28 412.971 68.84C411.307 67.368 410.475 64.984 410.475 61.688V51.032H407.211V44.216H410.475V37.688H418.683V44.216H424.059V51.032H418.683V61.784C418.683 62.584 418.875 63.16 419.259 63.512C419.643 63.864 420.283 64.04 421.179 64.04H424.107Z" fill="#272727"/>
<mask id="mask0" mask-type="alpha" maskUnits="userSpaceOnUse" x="43" y="16" width="77" height="77">
<circle cx="81.5" cy="54.5" r="38.5" fill="white"/>
</mask>
<g mask="url(#mask0)">
<circle cx="81.5" cy="54.5" r="38.5" fill="#5578F3"/>
<g style="mix-blend-mode:screen">
<circle cx="99.5" cy="54.5" r="38.5" fill="#113C5A"/>
</g>
<g style="mix-blend-mode:overlay">
<path d="M158 54.5C158 75.763 140.763 93 119.5 93C98.237 93 81 75.763 81 54.5C81 33.237 98.237 16 119.5 16C140.763 16 158 33.237 158 54.5Z" fill="#7393AA"/>
</g>
</g>
</svg>
